<svg id="Grupo_1473" data-name="Grupo 1473" xmlns="http://www.w3.org/2000/svg" xmlns:xlink="http://www.w3.org/1999/xlink" width="29.461" height="27.058" viewBox="0 0 29.461 27.058">
  <defs>
    <clipPath id="clip-path">
      <rect id="Rectángulo_1441" data-name="Rectángulo 1441" width="29.461" height="27.058" fill="#fff"/>
    </clipPath>
  </defs>
  <g id="Grupo_1472" data-name="Grupo 1472" clip-path="url(#clip-path)">
    <path id="Trazado_1112" data-name="Trazado 1112" d="M30.36,57.684H28.834V56.158a.152.152,0,0,0-.152-.152H27.348a.152.152,0,0,0-.152.152v1.526H25.669a.152.152,0,0,0-.152.152v1.334a.153.153,0,0,0,.152.152H27.2v1.526a.152.152,0,0,0,.152.152h1.334a.152.152,0,0,0,.152-.152V59.323H30.36a.153.153,0,0,0,.152-.152V57.837a.152.152,0,0,0-.152-.152" transform="translate(-20.129 -44.181)" fill="#fff"/>
    <path id="Trazado_1113" data-name="Trazado 1113" d="M93.465,69.7a.926.926,0,1,0,1.31,0,.926.926,0,0,0-1.31,0" transform="translate(-73.517 -54.769)" fill="#fff"/>
    <path id="Trazado_1114" data-name="Trazado 1114" d="M105.426,57.738a.926.926,0,1,0,1.31,0,.927.927,0,0,0-1.31,0" transform="translate(-82.952 -45.333)" fill="#fff"/>
    <path id="Trazado_1115" data-name="Trazado 1115" d="M93.465,57.738a.926.926,0,1,0,1.31,0,.926.926,0,0,0-1.31,0" transform="translate(-73.517 -45.333)" fill="#fff"/>
    <path id="Trazado_1116" data-name="Trazado 1116" d="M105.426,69.7a.926.926,0,1,0,1.31,0,.927.927,0,0,0-1.31,0" transform="translate(-82.952 -54.769)" fill="#fff"/>
    <path id="Trazado_1117" data-name="Trazado 1117" d="M21.128,34.361a8.363,8.363,0,0,0-3.153.9,8.56,8.56,0,0,1-3.245.917,8.564,8.564,0,0,1-3.245-.917,8.357,8.357,0,0,0-3.153-.9C3.894,34.361,0,40.808,0,48.157c0,3.537,1.32,6.007,3.21,6.007,1.74,0,3.316-2.271,4.841-4.467.889-1.281,2-2.875,2.541-2.875h8.277c.545,0,1.652,1.594,2.541,2.875,1.524,2.2,3.1,4.467,4.841,4.467,1.89,0,3.21-2.47,3.21-6.007,0-7.349-3.894-13.8-8.333-13.8m5.123,18.923c-1.28,0-2.854-2.267-4.118-4.089s-2.258-3.253-3.264-3.253H10.592c-1.005,0-2,1.436-3.263,3.253S4.49,53.284,3.21,53.284c-1.329,0-2.331-2.2-2.331-5.128,0-7.612,3.928-12.916,7.453-12.916a7.64,7.64,0,0,1,2.807.824,9.207,9.207,0,0,0,3.59.988,9.208,9.208,0,0,0,3.591-.988,7.641,7.641,0,0,1,2.807-.824c3.525,0,7.454,5.3,7.454,12.916,0,2.923-1,5.128-2.331,5.128" transform="translate(0 -27.106)" fill="#fff"/>
    <path id="Trazado_1118" data-name="Trazado 1118" d="M51.941,3.24A.519.519,0,0,1,51.6,3.11a8.237,8.237,0,0,0-10.924,0,.519.519,0,1,1-.688-.777,9.274,9.274,0,0,1,12.3,0,.519.519,0,0,1-.344.907" transform="translate(-31.404)" fill="#fff"/>
    <path id="Trazado_1119" data-name="Trazado 1119" d="M59.61,22.2a.518.518,0,0,1-.344-.131,4.009,4.009,0,0,0-5.318,0,.519.519,0,1,1-.688-.777,5.047,5.047,0,0,1,6.695,0,.519.519,0,0,1-.344.907" transform="translate(-41.876 -15.791)" fill="#fff"/>
    <path id="Trazado_1120" data-name="Trazado 1120" d="M55.774,12.718a.518.518,0,0,1-.344-.13,6.123,6.123,0,0,0-8.121,0,.519.519,0,1,1-.688-.777,7.161,7.161,0,0,1,9.5,0,.519.519,0,0,1,.044.732.52.52,0,0,1-.389.175" transform="translate(-36.639 -7.896)" fill="#fff"/>
  </g>
</svg>
