<svg id="Grupo_1475" data-name="Grupo 1475" xmlns="http://www.w3.org/2000/svg" xmlns:xlink="http://www.w3.org/1999/xlink" width="23.323" height="23.375" viewBox="0 0 23.323 23.375">
  <defs>
    <clipPath id="clip-path">
      <rect id="Rectángulo_1442" data-name="Rectángulo 1442" width="23.323" height="23.375" fill="#fff"/>
    </clipPath>
  </defs>
  <g id="Grupo_1474" data-name="Grupo 1474" clip-path="url(#clip-path)">
    <path id="Trazado_1121" data-name="Trazado 1121" d="M78.423,17.48l.006.006.006.007.018.017.024.023.025.022.026.022.026.02.026.02.027.019.027.018.028.018.027.016.03.017.026.014.032.016.025.012.034.015.024.01.036.014.023.009.038.012.022.007.04.011.021.006.042.009.02,0,.044.007.019,0,.046.006.017,0,.049,0h.014l.063,0h0l.063,0h.013l.05,0,.018,0,.044-.005.02,0,.043-.007.021,0,.041-.009.022-.006.039-.011.023-.007.037-.012.024-.009.035-.013.025-.011.034-.015.026-.013.032-.016.026-.015.03-.017.027-.016.029-.018.027-.018.027-.019.026-.02.026-.021.025-.021.026-.023.023-.022.019-.018.007-.007.006-.006,6.16-6.245a1.31,1.31,0,0,0-1.866-1.84l-3.916,3.97V1.31a1.31,1.31,0,0,0-2.621,0V13.365l-3.916-3.97a1.31,1.31,0,0,0-1.866,1.84Z" transform="translate(-67.694)" fill="#fff"/>
    <path id="Trazado_1122" data-name="Trazado 1122" d="M22.012,282.509a1.311,1.311,0,0,0-1.31,1.31,2.975,2.975,0,0,1-2.971,2.971H5.592a2.975,2.975,0,0,1-2.971-2.971,1.31,1.31,0,1,0-2.621,0,5.6,5.6,0,0,0,5.592,5.592H17.73a5.6,5.6,0,0,0,5.592-5.592,1.311,1.311,0,0,0-1.31-1.31" transform="translate(0 -266.037)" fill="#fff"/>
  </g>
</svg>
