<svg xmlns="http://www.w3.org/2000/svg" xmlns:xlink="http://www.w3.org/1999/xlink" width="34.645" height="25.996" viewBox="0 0 34.645 25.996">
  <defs>
    <clipPath id="clip-path">
      <rect id="Rectángulo_1439" data-name="Rectángulo 1439" width="34.645" height="25.996" fill="none"/>
    </clipPath>
  </defs>
  <g id="Grupo_1470" data-name="Grupo 1470" clip-path="url(#clip-path)">
    <path id="Trazado_1111" data-name="Trazado 1111" d="M34.644,2.3a.623.623,0,0,0,0-.108.591.591,0,0,0-.036-.109.646.646,0,0,0-.051-.116c-.006-.009-.007-.02-.013-.028a.514.514,0,0,0-.06-.056.56.56,0,0,0-.092-.087.626.626,0,0,0-.115-.059A.61.61,0,0,0,34.2,1.7c-.01,0-.02,0-.03,0a.636.636,0,0,0-.133-.009.59.59,0,0,0-.1,0,.619.619,0,0,0-.116.038.606.606,0,0,0-.108.048c-.011.006-.022.007-.032.014a4.793,4.793,0,0,1-4.533.529l0,0a4.3,4.3,0,0,1-.8-.425l0,0c-.09-.063-.453-.336-.568-.436a.6.6,0,0,0-.043-.046A5.915,5.915,0,0,0,24.541.051,5.987,5.987,0,0,0,20.779.87a.59.59,0,0,0-.064.059.625.625,0,0,0-.113.1.624.624,0,0,0-.1.219L17.312,14.293l-.132-.55C16.3,10.084,16.3,10.084,15.622,7.3L14.145,1.252c0-.007-.007-.012-.009-.02a.615.615,0,0,0-.093-.2A.618.618,0,0,0,13.918.92a.5.5,0,0,0-.053-.05A5.918,5.918,0,0,0,10.581.016a6.1,6.1,0,0,0-3.655,1.4l-.009-.008a4.593,4.593,0,0,1-.608.481l0,0a4.735,4.735,0,0,1-5.34-.1c-.01-.007-.022-.007-.032-.014a.561.561,0,0,0-.108-.048.639.639,0,0,0-.118-.039.68.68,0,0,0-.1,0,.589.589,0,0,0-.136.01.26.26,0,0,0-.031,0,.581.581,0,0,0-.071.036A.607.607,0,0,0,.256,1.8a.625.625,0,0,0-.091.085A.585.585,0,0,0,.1,1.941C.1,1.95.1,1.961.091,1.971a.621.621,0,0,0-.051.115A.57.57,0,0,0,0,2.194.592.592,0,0,0,0,2.3a.564.564,0,0,0,.009.129c0,.011,0,.021,0,.032l1.51,5.414c0,.008,0,.015.006.024l1.013,3.635c0,.011.011.019.014.03a.584.584,0,0,0,.035.075.614.614,0,0,0,.076.12.682.682,0,0,0,.055.057.631.631,0,0,0,.127.09c.015.007.024.02.039.027l.049.019.007,0a6.016,6.016,0,0,0,6.15-.844l.041-.034c2.1-1.582,4.237-1.709,6.044-.372.182.756.4,1.66.8,3.321l.693,2.893L14.64,25.23a.62.62,0,0,0,.454.748.6.6,0,0,0,.147.018.619.619,0,0,0,.6-.472L17.3,19.556l1.431,5.965a.619.619,0,1,0,1.2-.289l-1.991-8.307,1.517-6.211a4.706,4.706,0,0,1,5.86.2.375.375,0,0,0,.046.042c.058.05.11.1.162.136h0a6.018,6.018,0,0,0,6.172.862l.008,0,.048-.019a.444.444,0,0,0,.039-.028.6.6,0,0,0,.127-.089.618.618,0,0,0,.056-.058.6.6,0,0,0,.074-.118.585.585,0,0,0,.036-.077c0-.011.011-.019.014-.029L33.116,7.9c0-.007,0-.015.006-.024l1.51-5.414c0-.01,0-.02,0-.03a.631.631,0,0,0,.01-.132M13.007,1.811l.215.881c-.142-.053-.28-.11-.428-.152-.124-.034-.253-.063-.382-.089a6,6,0,0,0-1.058-.134l-.261-1.07a5.168,5.168,0,0,1,1.913.563M8.352,10.122c-.016.012-.032.025-.047.039-.059.049-.125.087-.187.132l-.258-.93A5.014,5.014,0,0,0,8.436,9l.019-.012c.07-.05.13-.1.194-.15,0,0,.011,0,.015-.006.045-.035.087-.071.128-.106l.045-.037.02-.017s0,0,.006-.007c.1-.089.2-.18.31-.288h0l0,0,.014-.012c.03-.028.063-.054.095-.082.048-.04.107-.089.181-.144l.275,1.115a8.749,8.749,0,0,0-1.388.869M6.8,9.143a5.161,5.161,0,0,1-1.512.249L4.818,7.714a5.811,5.811,0,0,0,.73-.059h.007a5.646,5.646,0,0,0,1.111-.267l.218.783.065.234.17.61c-.09.037-.176.08-.268.111L6.8,9.143M2.567,5.368a5.564,5.564,0,0,0,.739.164c.057.009.113.018.17.025.035,0,.069.012.1.016l.315,1.132.093.334a5.03,5.03,0,0,1-.632-.14c-.06-.017-.119-.037-.18-.056-.152-.05-.3-.107-.449-.171-.058-.025-.118-.048-.175-.075-.041-.02-.08-.047-.121-.068L2.056,5.186c.167.068.336.129.508.181h0m5.307-1.12L7.929,4.2c.143-.115.3-.237.481-.36l.1.4L8.771,5.31a4.638,4.638,0,0,0-.553.4c-.01.009-.022.014-.032.022a.347.347,0,0,0-.04.04,4.618,4.618,0,0,1-.635.5l-.024.018c-.136.087-.279.157-.42.23L7.026,6.37c-.117-.42-.242-.867-.365-1.309.048-.024.093-.053.141-.077a4.846,4.846,0,0,0,1.073-.736m4.754-1.111a5.3,5.3,0,0,1,.618.22c.054.024.1.053.157.077l.331,1.356a5.578,5.578,0,0,0-1.846-.352h-.018l-.347-1.421-.015-.062a5.927,5.927,0,0,1,.791.105c.108.023.216.046.328.076m-2.264,1.5c-.138.036-.271.08-.4.125s-.253.079-.376.129c-.063.027-.119.06-.18.089-.023.01-.045.022-.067.032l-.2-.823-.167-.678a5.209,5.209,0,0,1,1.911-.532l.366,1.5a5.719,5.719,0,0,0-.6.093c-.095.019-.189.038-.282.062m-5,2.414a5.17,5.17,0,0,1-.553.037H4.644L4.6,6.922,4.234,5.613h0c.09,0,.18-.016.27-.02.12-.006.239-.012.359-.027q.215-.023.428-.064c.079-.015.154-.035.232-.053a5.4,5.4,0,0,0,.558-.157l.39,1.4c.008.028.015.055.023.083a5.163,5.163,0,0,1-1.017.267l-.113.012M4.1,9.277c-.064-.014-.128-.025-.191-.042a4.843,4.843,0,0,1-.462-.149c-.067-.025-.137-.045-.2-.072-.046-.019-.09-.046-.136-.067L2.727,7.592c0-.008,0-.015-.006-.024L2.647,7.3c.129.051.256.1.389.145.09.028.181.048.272.072.178.046.353.087.532.116.072.011.144.018.216.027l.109.014.183.656.288,1.033-.022,0A5.218,5.218,0,0,1,4.1,9.277M8.743,7.934h0l-.021.022c-.1.1-.193.186-.29.269l-.038.031c-.093.079-.189.153-.294.228l-.006,0c-.125.09-.272.162-.41.241l-.106-.379-.032-.116L7.313,7.4,7.24,7.138a5.929,5.929,0,0,0,.612-.344l.033-.025c.078-.053.15-.11.225-.165.045-.033.093-.065.136-.1.12-.1.234-.194.34-.3L8.6,6.194l.012-.013.006,0c.1-.081.207-.145.311-.218l.26,1.059.115.466a4.461,4.461,0,0,0-.423.329c-.079.066-.134.116-.14.122m1.719-6.666.26,1.069a5.227,5.227,0,0,0-1.907.547c-.018-.071-.039-.156-.063-.253L8.746,2.61l-.2-.81a4.758,4.758,0,0,1,1.915-.532M5.824,4.725c-.066.022-.132.041-.2.06a5,5,0,0,1-.617.139H5a5.211,5.211,0,0,1-.948.043l-.3-1.063a5.941,5.941,0,0,0,1.85-.313l.306,1.1c-.03.011-.059.025-.089.035M3.649,10.9,3.316,9.7c.079.027.16.052.241.076s.175.053.264.074c.175.043.352.08.53.106.1.015.2.023.3.032.054.006.109.014.163.018L5,10.654l.152.547a4.765,4.765,0,0,1-1.5-.3M9.863,7.158,9.793,6.87l-.007-.031-.3-1.215c.064-.033.129-.064.2-.094a5,5,0,0,1,.482-.189c.116-.038.233-.076.352-.106.083-.022.167-.041.25-.058a5.3,5.3,0,0,1,.624-.091l.36,1.481a5.838,5.838,0,0,0-.98.222,5.722,5.722,0,0,0-.908.37m3.337.024c.074.011.147.022.223.037.053.009.106.019.158.03a5.424,5.424,0,0,1,.816.258l.02.085c.144.586.256,1.044.353,1.443a5.421,5.421,0,0,0-1.9-.474l-.346-1.422a5.151,5.151,0,0,1,.672.045m.76-.478-.053-.014c-.074-.019-.147-.034-.222-.05a5.378,5.378,0,0,0-1.312-.134l-.181-.749h0l-.165-.673a5.126,5.126,0,0,1,1.641.336c.024.009.047.021.071.031.061.025.118.06.179.088l.3,1.238c-.086-.027-.173-.049-.259-.072M3.1,3.861l.292,1.048a5.228,5.228,0,0,1-.631-.137l-.027-.007a5.024,5.024,0,0,1-.644-.243c-.026-.012-.053-.021-.079-.033-.062-.03-.118-.071-.179-.1L1.586,3.5A6.01,6.01,0,0,0,3.1,3.861m2.683,7.32-.1-.375c-.059-.213-.132-.475-.221-.795.156-.007.311-.017.467-.037.11-.014.218-.035.326-.055.153-.028.3-.064.452-.1.095-.027.189-.05.282-.08s.2-.075.3-.115l.284,1.019a4.742,4.742,0,0,1-1.787.542m4.529-2.186-.3-1.2a5.271,5.271,0,0,1,1.471-.549L11.6,7.22c.1-.018.2-.027.3-.04l.336,1.382a6.1,6.1,0,0,0-1.923.433M7.785,2.3c.028-.024.1-.085.206-.158.042.17.09.365.154.619.007.031.024.1.048.2l.059.241a5.385,5.385,0,0,0-.73.542l-.2.162c-.112.092-.2.164-.28.22a4.32,4.32,0,0,1-.551.332l-.3-1.078a5.8,5.8,0,0,0,.806-.446l0,0A4.1,4.1,0,0,0,7.785,2.3M29.5,11.2l.02-.072L29.831,10c.151-.01.3-.019.451-.041.071-.011.139-.029.209-.041.171-.032.342-.064.511-.111.073-.021.143-.051.215-.074l.115-.039L31,10.9a4.765,4.765,0,0,1-1.5.3M25.4,7.539c-.022-.015-.04-.033-.062-.048l.173-.705.206-.841a3.783,3.783,0,0,1,.3.23l.013.011.015.015c.1.1.217.2.339.295.049.039.1.076.155.113.072.054.142.109.218.16a.36.36,0,0,0,.033.025,5.74,5.74,0,0,0,.61.35l-.443,1.595c-.131-.076-.265-.146-.387-.234l-.007,0-.018-.014q-.174-.123-.331-.256c-.1-.09-.2-.183-.3-.283L25.9,7.932l-.009-.008a4.848,4.848,0,0,0-.491-.385m-3.863-.994a5.764,5.764,0,0,0-.751.128c-.124.03-.243.074-.364.112l.306-1.253a5.362,5.362,0,0,1,1.253-.4c.054-.009.108-.019.162-.025.1-.014.188-.021.281-.029.066,0,.132-.013.2-.015l-.352,1.444a5.735,5.735,0,0,0-.612.025l-.122.011M24.018,3c.109.014.217.029.326.05.09.018.18.039.269.061s.2.054.3.086.17.053.254.084a5.31,5.31,0,0,1,.491.209l.022.01-.339,1.38L25.31,5A5.845,5.845,0,0,0,23.9,4.547c-.048-.009-.1-.014-.144-.022-.1-.016-.193-.032-.292-.043l-.065-.01.195-.8.035-.141c.06-.248.1-.425.137-.561h.01c.08.006.159.02.238.031m4.836,2.381a5.709,5.709,0,0,0,.653.148c.066.011.132.017.2.025a5.838,5.838,0,0,0,.679.051l.028,0-.32,1.151L30,7.091c-.014,0-.027,0-.041,0-.033,0-.065,0-.1,0a5.1,5.1,0,0,1-.63-.041l-.043,0a5.156,5.156,0,0,1-.7-.145l0,0c-.116-.033-.228-.084-.342-.126L28.561,5.3c.033.012.069.02.1.031.063.02.126.038.189.057M31.29,9.056a4.735,4.735,0,0,1-.556.179l-.084.022a5.215,5.215,0,0,1-.641.109l.379-1.36.089-.318c.071-.007.142-.02.214-.03l.065-.01a5.475,5.475,0,0,0,.735-.16c.041-.012.08-.027.121-.04.129-.041.258-.085.384-.135l-.071.256c0,.007,0,.015-.006.023L31.54,8.946c-.047.021-.092.049-.139.069s-.074.027-.111.041M26.458,5.734l-.008-.007c-.11-.093-.227-.182-.349-.268l-.035-.024c-.064-.044-.127-.088-.193-.129.028-.112.054-.222.081-.331l.283-1.148c.053.036.1.071.145.1.1.079.2.158.289.24l.011.009a2.753,2.753,0,0,0,.422.346l.109.077,0,0,.009.006c.035.024.067.048.106.073.009.006.02,0,.03.009.092.056.18.109.268.158.119.069.233.147.356.207-.149.535-.287,1.028-.407,1.462-.123-.064-.249-.123-.365-.2-.016-.01-.034-.017-.051-.027a.239.239,0,0,0-.028-.022,4.654,4.654,0,0,1-.64-.5.242.242,0,0,0-.035-.036M24.475,7.02c-.121-.054-.249-.1-.378-.147-.085-.031-.17-.066-.257-.093-.131-.041-.269-.072-.406-.1-.085-.02-.17-.045-.257-.061s-.19-.028-.287-.042l.354-1.452.007-.031c.115.009.228.014.344.032l.03,0a5.3,5.3,0,0,1,1.53.5c-.127.516-.256,1.044-.379,1.542L24.7,7.132c-.076-.037-.15-.078-.227-.112m-1.33.22c.083.017.163.037.244.058.1.025.2.05.294.08.073.024.142.051.212.077a5.287,5.287,0,0,1,.732.328c-.109.443-.206.838-.281,1.145A6.161,6.161,0,0,0,22.4,8.57l.285-1.17.054-.223c.031,0,.063,0,.093.009q.155.022.308.054M21.751,2.571c-.109.034-.219.077-.329.118l.212-.867a4.7,4.7,0,0,1,1.911-.556c-.079.327-.157.646-.159.654l-.056.233-.042.172a4.582,4.582,0,0,0-1.447.222l-.09.025m7.376,5.088a5.943,5.943,0,0,0,.7.053l-.47,1.679c-.029,0-.058,0-.087,0h-.034a5.1,5.1,0,0,1-1.71-.38L27.7,8.4c.053-.194.152-.548.283-1.021a5.538,5.538,0,0,0,1.063.266l.084.013M33.06,3.493l-.249.9c-.048.025-.092.057-.14.08s-.121.054-.181.08q-.224.1-.454.175c-.069.024-.138.048-.208.068a5.2,5.2,0,0,1-.581.128l.3-1.059,0-.008a6.045,6.045,0,0,0,1.515-.361m-1.2,1.924c.116-.03.231-.058.345-.095.132-.043.26-.1.388-.149l-.378,1.355c-.043.022-.083.051-.126.071-.1.046-.2.082-.3.122-.117.047-.233.1-.353.134-.093.029-.186.05-.28.074-.138.035-.277.069-.418.093-.027,0-.053.006-.079.01l.012-.043.4-1.426c.118-.014.235-.028.352-.049.147-.025.292-.06.438-.1M26.526,2.648c.051-.206.094-.378.13-.523a1.929,1.929,0,0,1,.162.131,3.892,3.892,0,0,0,.831.67h0a5.685,5.685,0,0,0,.807.439l-.3,1.081a4.68,4.68,0,0,1-.54-.323c-.037-.025-.077-.05-.111-.074l-.029-.022h0l-.025-.019c-.143-.107-.257-.206-.366-.3l-.057-.049c-.006-.006-.009-.013-.014-.018s-.1-.087-.248-.2a3.907,3.907,0,0,0-.367-.253Zm.827,6.979c.09.036.184.066.278.1.054.019.106.04.16.056a5.849,5.849,0,0,0,.663.153c.069.012.139.027.209.036.173.024.346.042.519.05-.141.51-.238.858-.308,1.114l-.013.046a4.752,4.752,0,0,1-1.789-.543l.28-1.007ZM21.24,3.432l.008,0c.078-.036.156-.069.234-.1s.166-.063.249-.092c.132-.045.261-.085.388-.118s.248-.063.374-.085l.1-.019a5.079,5.079,0,0,1,.539-.053l-.11.451-.238.977-.013.054a4.982,4.982,0,0,0-.976.1c-.1.019-.207.043-.311.068l-.032.007a5.575,5.575,0,0,0-.544.164Zm9.649.469-.3,1.077c-.1,0-.2.007-.305,0s-.228-.015-.342-.027c-.153-.014-.3-.033-.455-.061A4.827,4.827,0,0,1,29,4.784c-.093-.027-.179-.063-.269-.095l.306-1.094a5.964,5.964,0,0,0,1.853.306M26.1,1.8c-.092.375-.2.807-.2.815-.006.024-.031.126-.07.284-.027-.013-.055-.023-.082-.035-.1-.045-.2-.09-.3-.129-.132-.051-.265-.095-.4-.136-.088-.027-.175-.053-.263-.076-.141-.036-.281-.065-.423-.09-.089-.015-.176-.03-.265-.041-.059-.008-.118-.022-.178-.028l.144-.594.121-.493c.072,0,.144,0,.216.007a5.3,5.3,0,0,1,1.7.515m-5.85,5.7A4.769,4.769,0,0,1,21.6,7.16l.1-.01c.139-.012.275-.011.41-.011l-.352,1.45a5.977,5.977,0,0,0-1.9.475Zm5.94,2.535-.018-.015a4.962,4.962,0,0,0-1.244-.847l.056-.229.134-.542.063-.258c.1.079.207.159.3.24.038.04.08.074.119.112.062.06.124.121.189.178,0,0,0,0,.006.007l.019.015.006,0,.013.011c.05.042.1.085.154.128,0,0,.012,0,.018.006.059.046.115.094.177.138l.014.011a5.341,5.341,0,0,0,.6.366l-.261.933c-.069-.051-.142-.093-.208-.148a.329.329,0,0,0-.029-.022Z" transform="translate(0 0)" fill="#fff"/>
  </g>
</svg>
