<svg xmlns="http://www.w3.org/2000/svg" xmlns:xlink="http://www.w3.org/1999/xlink" width="38.072" height="24.171" viewBox="0 0 38.072 24.171">
  <defs>
    <clipPath id="clip-path">
      <rect id="Rectángulo_1436" data-name="Rectángulo 1436" width="38.072" height="24.171" fill="#fff"/>
    </clipPath>
  </defs>
  <g id="Grupo_1464" data-name="Grupo 1464" clip-path="url(#clip-path)">
    <path id="Trazado_1105" data-name="Trazado 1105" d="M37.857,11.426,31.9,1.109A1.611,1.611,0,0,0,29.7.52l-1.333.769a1.614,1.614,0,0,0-.8,1.523,9.17,9.17,0,0,1-3.044-.122,19.46,19.46,0,0,0-7.935-.365A4.432,4.432,0,0,0,14,3.845a11.8,11.8,0,0,1-3.519-1.134l-.008,0A1.61,1.61,0,0,0,9.7.986L8.37.216a1.608,1.608,0,0,0-2.2.589L.216,11.122a1.609,1.609,0,0,0,.589,2.2l1.333.769a1.6,1.6,0,0,0,.8.215,1.617,1.617,0,0,0,1.131-.462,13.017,13.017,0,0,1,2.59,2.285,1.99,1.99,0,0,0,0,.328,1.967,1.967,0,0,0,.7,1.342l.191.159a1.965,1.965,0,0,0,1.265.46c.06,0,.12,0,.181-.008l.087-.01A1.978,1.978,0,0,0,9.8,20.007l.191.159a1.964,1.964,0,0,0,1.265.46q.09,0,.181-.008a1.994,1.994,0,0,0,.44-.091,1.965,1.965,0,0,0,.7,1.279l.191.16a1.971,1.971,0,0,0,1.267.459,2,2,0,0,0,.642-.107,1.972,1.972,0,0,0,.689,1.232l.191.159a1.965,1.965,0,0,0,1.265.46q.09,0,.181-.008a1.965,1.965,0,0,0,1.342-.7l.71-.851.03.026,1.33,1.039a2.088,2.088,0,0,0,1.291.446,2.137,2.137,0,0,0,.261-.016,2.1,2.1,0,0,0,1.843-2.2,2.1,2.1,0,0,0,2.484-2.077,2.086,2.086,0,0,0,.494.059,2.19,2.19,0,0,0,.261-.016,2.1,2.1,0,0,0,1.839-2.264c.063.006.126.009.189.009a2.135,2.135,0,0,0,.261-.016,2.106,2.106,0,0,0,1.847-2.141.477.477,0,0,0,.109-.028A17.92,17.92,0,0,0,33.96,14.1a1.606,1.606,0,0,0,1.975.29l1.333-.769h0a1.611,1.611,0,0,0,.589-2.2M2.614,13.265,1.281,12.5a.657.657,0,0,1-.24-.9L7,1.281A.652.652,0,0,1,7.4.975.66.66,0,0,1,7.567.952a.653.653,0,0,1,.327.088l1.333.769a.656.656,0,0,1,.24.9L3.511,13.024a.658.658,0,0,1-.9.24m6.3,4.2a1.021,1.021,0,0,1-.751-.235l-.191-.159a1.029,1.029,0,0,1-.13-1.448l1.667-2a1.03,1.03,0,0,1,1.448-.131l.191.16a1.029,1.029,0,0,1,.13,1.448.472.472,0,0,0-.08.139L9.737,16.992a.47.47,0,0,0-.122.1,1.021,1.021,0,0,1-.7.365m2.433,2.209a1.018,1.018,0,0,1-.751-.235l-.191-.159a1.028,1.028,0,0,1-.13-1.448l2.379-2.851a1.028,1.028,0,0,1,1.447-.13l.191.159a1.029,1.029,0,0,1,.13,1.448.475.475,0,0,0-.079.137l-2.027,2.428a2.014,2.014,0,0,0-.125.167.471.471,0,0,0-.148.119,1.021,1.021,0,0,1-.7.365m2.022,1.567-.191-.16a1.028,1.028,0,0,1-.13-1.448l2.379-2.851a1.027,1.027,0,0,1,1.447-.13l.191.159a1.028,1.028,0,0,1,.13,1.448c-.01.012-.019.025-.028.037l-2.062,2.471a2,2,0,0,0-.173.243.477.477,0,0,0-.116.1,1.03,1.03,0,0,1-1.448.131m4.237,1.613a1.028,1.028,0,0,1-1.448.131l-.191-.159a1.03,1.03,0,0,1-.13-1.448l2.379-2.85a1.029,1.029,0,0,1,1.448-.13l.191.159A1.028,1.028,0,0,1,19.989,20Zm5-.124a1.151,1.151,0,0,1-1.617.2l-1.331-1.039-.007-.005,1.06-1.27a1.98,1.98,0,0,0,.332-.567l1.364,1.065a1.152,1.152,0,0,1,.2,1.618m7.372-6.5a1.151,1.151,0,0,1-1.559.241,2.124,2.124,0,0,0-.343-.338l-3.465-2.706a.476.476,0,0,0-.586.75L27.5,16.876a1.15,1.15,0,0,1,.166.159.475.475,0,0,0,.075.1,1.153,1.153,0,0,1-.81,1.8,1.134,1.134,0,0,1-.832-.221l-.481-.413c-.043-.04-.088-.078-.134-.115l-2.73-2.133a.476.476,0,0,0-.586.75l2.722,2.126.1.084a1.152,1.152,0,0,1-1.507,1.739.471.471,0,0,0-.161-.082,2.106,2.106,0,0,0-.315-.3l-1.855-1.449-.017-.012a1.965,1.965,0,0,0-.661-1.076l-.191-.159a1.98,1.98,0,0,0-1.908-.353,1.965,1.965,0,0,0-.69-1.232l-.191-.159a1.967,1.967,0,0,0-1.446-.452,1.994,1.994,0,0,0-.44.091,1.972,1.972,0,0,0-.695-1.28l-.191-.16a1.982,1.982,0,0,0-2.306-.167,1.969,1.969,0,0,0-.648-1.03l-.191-.16a1.982,1.982,0,0,0-2.788.251l-1.667,2c-.033.039-.064.08-.093.121A13.083,13.083,0,0,0,4.6,13.05l5.473-9.48a11.806,11.806,0,0,0,3.318,1.114l-2.028,2.83a1.637,1.637,0,0,0,1.7,2.548,6.021,6.021,0,0,0,2.861-1.62,7.615,7.615,0,0,1,2.491-1.648l.179-.071a.522.522,0,0,1,.465.039,7.663,7.663,0,0,1,1.126.94c1.2,1.114,3.38,3.152,9.878,7.193a.494.494,0,0,0,.027.058,1.151,1.151,0,0,1-.1,1.27m1.174-1.766c-6.888-4.24-9.124-6.326-10.331-7.452a8.386,8.386,0,0,0-1.273-1.052,1.476,1.476,0,0,0-1.318-.116l-.179.071a8.565,8.565,0,0,0-2.8,1.85,5.086,5.086,0,0,1-2.409,1.375.686.686,0,0,1-.713-1.065L14.582,4.65A3.478,3.478,0,0,1,16.77,3.261a18.533,18.533,0,0,1,7.538.356,9.814,9.814,0,0,0,3.607.1L33.448,13.3a16.368,16.368,0,0,1-2.287,1.156M36.792,12.8l-1.333.77a.657.657,0,0,1-.9-.241L28.606,3.011a.657.657,0,0,1,.24-.9l1.333-.769a.657.657,0,0,1,.9.24L37.033,11.9a.658.658,0,0,1-.24.9" transform="translate(0 0)" fill="#fff"/>
  </g>
</svg>
