<svg xmlns="http://www.w3.org/2000/svg" xmlns:xlink="http://www.w3.org/1999/xlink" width="20.913" height="32.694" viewBox="0 0 20.913 32.694">
  <defs>
    <clipPath id="clip-path">
      <rect id="Rectángulo_1438" data-name="Rectángulo 1438" width="20.913" height="32.694" transform="translate(0 0)" fill="#fff"/>
    </clipPath>
  </defs>
  <g id="Grupo_1468" data-name="Grupo 1468" clip-path="url(#clip-path)">
    <path id="Trazado_1110" data-name="Trazado 1110" d="M20.913,13.26A2.612,2.612,0,0,0,16.992,11V5.228a2.612,2.612,0,0,0-3.921-2.263V2.614a2.614,2.614,0,0,0-5.228,0v.352A2.612,2.612,0,0,0,3.921,5.228V6.234A2.612,2.612,0,0,0,0,8.5V25.654a7.031,7.031,0,0,0,6.866,7.021.632.632,0,0,0,.157.019h5.408c.087,0,.172,0,.257-.011l.705-.006a.593.593,0,0,0,.3-.083,8.516,8.516,0,0,0,7.21-8.11.657.657,0,0,0,.01-.113Zm-7.6,18.067a.586.586,0,0,0-.158.043l-.558.009c-.055,0-.11.008-.167.008H7.173a.648.648,0,0,0-.15-.017,5.723,5.723,0,0,1-5.716-5.716V8.5a1.307,1.307,0,0,1,2.614,0v7.842a.654.654,0,1,0,1.307,0V5.228a1.307,1.307,0,1,1,2.614,0v11.11a.654.654,0,1,0,1.307,0V2.614a1.307,1.307,0,0,1,2.614,0V16.338a.654.654,0,1,0,1.307,0V5.228a1.307,1.307,0,1,1,2.614,0V24.371a.654.654,0,0,0,1.307,0V13.26a1.307,1.307,0,0,1,2.614,0V24.276a.649.649,0,0,0-.007.081,7.2,7.2,0,0,1-6.285,6.97" transform="translate(0 0)" fill="#fff"/>
  </g>
</svg>
