<svg xmlns="http://www.w3.org/2000/svg" xmlns:xlink="http://www.w3.org/1999/xlink" width="31.036" height="28.073" viewBox="0 0 31.036 28.073">
  <defs>
    <clipPath id="clip-path">
      <rect id="Rectángulo_1437" data-name="Rectángulo 1437" width="31.036" height="28.073" transform="translate(0 0)" fill="#fff"/>
    </clipPath>
  </defs>
  <g id="Grupo_1466" data-name="Grupo 1466" clip-path="url(#clip-path)">
    <path id="Trazado_1106" data-name="Trazado 1106" d="M27.725,0H7.688a3.306,3.306,0,0,0-3.3,3.3V20.83H.538A.537.537,0,0,0,0,21.367v2.455a4.255,4.255,0,0,0,4.25,4.251H21.043a4.451,4.451,0,0,0,4.446-4.446V8.385H30.5a.537.537,0,0,0,.538-.538V3.311A3.315,3.315,0,0,0,27.725,0M17.33,27H4.25a3.179,3.179,0,0,1-3.175-3.176V21.9H16.793v1.918a4.222,4.222,0,0,0,1.245,3.006c.059.059.119.115.181.17ZM24.414,3.308v20.32A3.375,3.375,0,0,1,21.043,27a3.176,3.176,0,0,1-3.175-3.176V21.367a.537.537,0,0,0-.538-.537H5.46V3.3A2.23,2.23,0,0,1,7.688,1.075h17.6a3.3,3.3,0,0,0-.871,2.233m5.547,4H25.489v-4a2.239,2.239,0,0,1,2.226-2.236h.014a2.239,2.239,0,0,1,2.233,2.236Z" transform="translate(0 0)" fill="#fff"/>
    <path id="Trazado_1107" data-name="Trazado 1107" d="M36.819,71.783h11.63a.537.537,0,1,0,0-1.075H36.819a.537.537,0,0,0,0,1.075" transform="translate(-27.751 -54.083)" fill="#fff"/>
    <path id="Trazado_1108" data-name="Trazado 1108" d="M44.632,23.376l.014.01,2.8,1.96a.537.537,0,0,0,.617,0l2.8-1.96.014-.01a3.425,3.425,0,0,0,1.366-2.729V16.962a.537.537,0,0,0-.3-.483l-3.95-1.931a.537.537,0,0,0-.472,0l-3.95,1.931a.537.537,0,0,0-.3.483v3.683a3.425,3.425,0,0,0,1.368,2.731M44.339,17.3l3.413-1.668L51.165,17.3v3.349a2.346,2.346,0,0,1-.929,1.864l-2.48,1.739-2.486-1.739a2.346,2.346,0,0,1-.931-1.866Z" transform="translate(-33.091 -11.086)" fill="#fff"/>
    <path id="Trazado_1109" data-name="Trazado 1109" d="M54.423,34.133a.538.538,0,0,0,.755,0l2.052-2a.537.537,0,1,0-.751-.769L54.807,33l-.731-.731a.537.537,0,0,0-.76.76Z" transform="translate(-40.66 -23.873)" fill="#fff"/>
  </g>
</svg>
