<svg id="Grupo_1406" data-name="Grupo 1406" xmlns="http://www.w3.org/2000/svg" width="229.702" height="50" viewBox="0 0 229.702 50">
  <g id="Grupo_1406-2" data-name="Grupo 1406" transform="translate(0 0)">
    <g id="Grupo_1364" data-name="Grupo 1364" transform="translate(0)">
      <g id="Grupo_305" data-name="Grupo 305">
        <g id="Grupo_5" data-name="Grupo 5">
          <g id="Grupo_1" data-name="Grupo 1" transform="translate(183.512)">
            <path id="Trazado_1" data-name="Trazado 1" d="M299.7-196.588c-.945-.082-1.88-.149-2.808-.208l0,0-.542-.032-.405-.026v.005l-.3-.016a72.158,72.158,0,0,0,4.757,9.923c16.994-.26,30.564,1.031,30.632,4.289.038,1.893-4.517,3.685-11.753,4.987-.062.1-.123.2-.185.3,8.751-1.012,14.566-3.345,14.842-6.52C334.394-189.222,319.068-194.907,299.7-196.588Z" transform="translate(-287.752 204.645)" fill="#00ae42"/>
            <path id="Trazado_2" data-name="Trazado 2" d="M294.414-200.647c1.467-.967,4.973,1.462,9.437,6.157l.52.055c-5.178-6.169-9.87-9.392-12.551-8.011-4.756,2.452-1.389,18.449,7.519,35.729q.495.958,1,1.894h0l.694,1.273c.028.051.055.1.085.156h0l.222.408a95.926,95.926,0,0,0,5.623-9.714C297.767-186.827,291.71-198.863,294.414-200.647Z" transform="translate(-289.661 202.762)" fill="#ffcd00"/>
            <path id="Trazado_3" data-name="Trazado 3" d="M312.821-187.545c-7.007,15.725-14.009,27.708-17.018,26.38-1.8-.792-1.408-6.012.656-13.545v0l-.136-.286h0c-3.018,8.749-3.472,15.349-.626,16.989,4.637,2.671,16.262-8.82,25.967-25.666q.883-1.53,1.7-3.048C320.432-187.128,316.849-187.4,312.821-187.545Z" transform="translate(-288.342 207.624)" fill="#3cb4e5"/>
          </g>
          <g id="Grupo_3" data-name="Grupo 3" transform="translate(0 0)">
            <g id="Grupo_2" data-name="Grupo 2">
              <path id="Trazado_4" data-name="Trazado 4" d="M162.563-163.009q-2.955,0-5.884-.181a41.542,41.542,0,0,1-6.091-.856v-34.836a51.642,51.642,0,0,1,5.443-.7q2.955-.231,5.495-.232a37.413,37.413,0,0,1,6.3.492,14.9,14.9,0,0,1,4.949,1.685,8.816,8.816,0,0,1,3.241,3.135,9.181,9.181,0,0,1,1.166,4.8q0,4.3-4.147,6.79a8.494,8.494,0,0,1,4.666,3.526,10.144,10.144,0,0,1,1.244,5.027q0,5.651-4.122,8.5T162.563-163.009Zm-4.1-22.291h3.94a10.971,10.971,0,0,0,5.34-.959,3.321,3.321,0,0,0,1.607-3.084,3.169,3.169,0,0,0-1.66-3.059,10.664,10.664,0,0,0-4.873-.881q-1.037,0-2.229.025c-.8.018-1.5.061-2.126.131Zm0,6.169v9.279q.881.1,1.919.156t2.281.051a14,14,0,0,0,5.857-1.036,3.845,3.845,0,0,0,2.229-3.836,3.758,3.758,0,0,0-1.866-3.552,10.949,10.949,0,0,0-5.34-1.062Z" transform="translate(-150.588 203.704)" fill="#002361"/>
              <path id="Trazado_5" data-name="Trazado 5" d="M173.256-178.924a16.65,16.65,0,0,1,1.115-6.35,13.612,13.612,0,0,1,2.928-4.537,12.19,12.19,0,0,1,4.174-2.747,13.047,13.047,0,0,1,4.847-.933,12.049,12.049,0,0,1,9.176,3.551q3.369,3.551,3.37,10.445c0,.45-.018.942-.053,1.478s-.069,1.011-.1,1.425H181.188a5.133,5.133,0,0,0,2.229,3.784,8.96,8.96,0,0,0,5.287,1.4,22.268,22.268,0,0,0,4.174-.389,15.663,15.663,0,0,0,3.344-.959l1.037,6.273a10.691,10.691,0,0,1-1.659.621,21.552,21.552,0,0,1-2.308.545q-1.271.234-2.721.389a27.453,27.453,0,0,1-2.9.156,17.155,17.155,0,0,1-6.4-1.09,12.472,12.472,0,0,1-4.51-2.98,11.822,11.822,0,0,1-2.644-4.485A17.76,17.76,0,0,1,173.256-178.924Zm18.144-2.954a7.984,7.984,0,0,0-.336-1.919,4.8,4.8,0,0,0-.881-1.659,4.691,4.691,0,0,0-1.5-1.192,4.9,4.9,0,0,0-2.255-.467,5.188,5.188,0,0,0-2.229.441,4.616,4.616,0,0,0-1.556,1.166,5.219,5.219,0,0,0-.959,1.685,11.045,11.045,0,0,0-.492,1.944Z" transform="translate(-143.345 205.725)" fill="#002361"/>
              <path id="Trazado_6" data-name="Trazado 6" d="M194.628-197.786l7.725-1.244v8.036h9.279v6.427h-9.279v9.59a7.629,7.629,0,0,0,.855,3.889q.855,1.451,3.447,1.451a14.736,14.736,0,0,0,2.567-.234,13.188,13.188,0,0,0,2.411-.648l1.089,6.013a21.912,21.912,0,0,1-3.11.986,18.162,18.162,0,0,1-4.2.414,13.824,13.824,0,0,1-5.236-.855,8.222,8.222,0,0,1-3.319-2.384,8.892,8.892,0,0,1-1.737-3.707,21.87,21.87,0,0,1-.492-4.822Z" transform="translate(-136.516 203.955)" fill="#002361"/>
              <path id="Trazado_7" data-name="Trazado 7" d="M221.871-199.815q8.034,0,12.338,2.825t4.3,9.253q0,6.482-4.355,9.358T221.716-175.5h-2.54v12.028h-8.087v-35.407a45.791,45.791,0,0,1,5.6-.726Q219.642-199.816,221.871-199.815Zm.519,6.895q-.883,0-1.736.051c-.57.034-1.064.07-1.478.1V-182.4h2.54a13.769,13.769,0,0,0,6.325-1.14q2.126-1.14,2.126-4.252a5.105,5.105,0,0,0-.545-2.489,4.137,4.137,0,0,0-1.554-1.581,6.991,6.991,0,0,0-2.462-.829A20.33,20.33,0,0,0,222.39-192.92Z" transform="translate(-131.256 203.704)" fill="#002361"/>
              <path id="Trazado_8" data-name="Trazado 8" d="M244.525-162.016a19.264,19.264,0,0,1-5.47-.726,8.088,8.088,0,0,1-3.317-1.892,6.256,6.256,0,0,1-1.659-2.954,15.919,15.919,0,0,1-.441-3.914v-30.015l7.725-1.244v29.7a10.243,10.243,0,0,0,.154,1.867,3.21,3.21,0,0,0,.6,1.4,3.139,3.139,0,0,0,1.271.934,6.95,6.95,0,0,0,2.229.466Z" transform="translate(-124.05 202.762)" fill="#002361"/>
              <path id="Trazado_9" data-name="Trazado 9" d="M255.505-193.49a17.885,17.885,0,0,1,5.7.777,8.866,8.866,0,0,1,3.655,2.229,8.2,8.2,0,0,1,1.944,3.526,17.391,17.391,0,0,1,.57,4.613v16.071q-1.659.364-4.613.855a44.3,44.3,0,0,1-7.154.493,22.653,22.653,0,0,1-4.8-.467,10.413,10.413,0,0,1-3.707-1.529,6.981,6.981,0,0,1-2.384-2.774,9.573,9.573,0,0,1-.83-4.2,7.952,7.952,0,0,1,.959-4.043,7.393,7.393,0,0,1,2.566-2.644,11.608,11.608,0,0,1,3.68-1.425,20.7,20.7,0,0,1,4.3-.441,24.588,24.588,0,0,1,2.669.129,12.081,12.081,0,0,1,1.892.336v-.726a4.276,4.276,0,0,0-1.191-3.162q-1.194-1.192-4.147-1.193a26.592,26.592,0,0,0-3.889.285,16.844,16.844,0,0,0-3.317.8l-.986-6.22q.675-.206,1.685-.441t2.2-.414q1.192-.182,2.514-.311T255.505-193.49Zm.621,22.6q1.14,0,2.177-.053a14.908,14.908,0,0,0,1.659-.154v-5.859q-.465-.1-1.4-.207a15.691,15.691,0,0,0-1.71-.1,15.424,15.424,0,0,0-2.048.129,5.346,5.346,0,0,0-1.685.492,2.891,2.891,0,0,0-1.14.984,2.742,2.742,0,0,0-.414,1.556,2.646,2.646,0,0,0,1.218,2.514A6.722,6.722,0,0,0,256.127-170.888Z" transform="translate(-120.774 205.725)" fill="#002361"/>
              <path id="Trazado_10" data-name="Trazado 10" d="M290.5-192.94q-2.338,7.88-4.885,14.775t-5.561,13.375a30.472,30.472,0,0,1-2.181,3.965,12.239,12.239,0,0,1-2.388,2.7,8.437,8.437,0,0,1-2.933,1.554,13.266,13.266,0,0,1-3.815.493,15.619,15.619,0,0,1-3.35-.338,14.915,14.915,0,0,1-2.516-.751l1.347-6.169a13.326,13.326,0,0,0,2.126.57,12.081,12.081,0,0,0,1.973.156,4.316,4.316,0,0,0,3.188-1.115,8.96,8.96,0,0,0,1.893-3.085q-2.646-5.182-5.29-11.638a144.627,144.627,0,0,1-4.979-14.488h8.19q.521,2.021,1.225,4.38t1.483,4.77q.782,2.411,1.589,4.691t1.536,4.147q.675-1.867,1.405-4.147t1.432-4.691q.7-2.411,1.354-4.77t1.171-4.38Z" transform="translate(-114.711 205.9)" fill="#002361"/>
            </g>
          </g>
        </g>
      </g>
    </g>
  </g>
</svg>
